<?xml version="1.0" encoding="UTF-8" standalone="no" ?>
<!DOCTYPE svg PUBLIC "-//W3C//DTD SVG 1.1//EN" "http://www.w3.org/Graphics/SVG/1.1/DTD/svg11.dtd">
<svg xmlns="http://www.w3.org/2000/svg" xmlns:xlink="http://www.w3.org/1999/xlink" version="1.1" width="500" height="250" viewBox="0 0 500 250" xml:space="preserve">
<desc>Created with Fabric.js 5.3.0</desc>
<defs>
</defs>
<g transform="matrix(1 0 0 1 60 120)" id="IBDE9ltVXqBdcDhQv3STI"  >
<path style="stroke: rgb(0,0,0); stroke-width: 1; stroke-dasharray: none; stroke-linecap: butt; stroke-dashoffset: 0; stroke-linejoin: miter; stroke-miterlimit: 4; fill: rgb(60,223,83); fill-rule: nonzero; opacity: 1;"  transform=" translate(0, 0)" d="M -25 70 L -25 60 L -25 -60 L -25 -70 L -25 -80 L 25 -80 L 25 80 L -25 80 z" stroke-linecap="round" />
</g>
<g transform="matrix(0.9999999961 0 0 1 90.000004801 120)" id="7GEK18nfo2FXmi-jQkhe-"  >
<path style="stroke: rgb(0,0,0); stroke-width: 2; stroke-dasharray: none; stroke-linecap: butt; stroke-dashoffset: 0; stroke-linejoin: miter; stroke-miterlimit: 4; fill: rgb(160,160,160); fill-rule: nonzero; opacity: 1;"  transform=" translate(0, 0)" d="M -54.12869 80 C -54.609899999999996 80 -55 79.6099 -55 79.12869 L -55 70 L -16.204479999999997 70 L -16.204479999999997 70 C -15.539269999999997 70 -14.999999999999996 69.46074 -14.999999999999996 68.79552 L -14.999999999999996 61.57915 L -14.999999999999996 61.57915 C -14.999999999999996 60.70701 -15.707009999999997 60 -16.579149999999995 60 L -55 60 L -55 -60 L -16.506770000000003 -60 L -16.506770000000003 -60 C -15.674610000000003 -60 -15.000000000000004 -60.6746 -15.000000000000004 -61.50677 L -15.000000000000004 -68.26082000000001 L -15.000000000000004 -68.26082000000001 C -15.000000000000004 -69.22134000000001 -15.778660000000004 -70.00000000000001 -16.739180000000005 -70.00000000000001 L -55.00000000000001 -70.00000000000001 L -55.00000000000001 -79.32754000000001 L -55.00000000000001 -79.32754000000001 C -55.00000000000001 -79.69893000000002 -54.698930000000004 -80.00000000000001 -54.327540000000006 -80.00000000000001 L -5.562520000000006 -80.00000000000001 L -5.562520000000006 -80.00000000000001 C -5.251850000000006 -80.00000000000001 -5.000000000000006 -79.74815000000001 -5.000000000000006 -79.43748000000001 L -5.000000000000006 -70 L 4.206319999999994 -70 L 4.206319999999994 -70 C 4.644659999999994 -70 4.999999999999994 -69.64466 4.999999999999994 -69.20632 L 4.999999999999994 -60.00000000000001 L 54.99999999999999 -60.00000000000001 L 54.99999999999999 59.99999999999999 L 4.999999999999993 59.99999999999999 L 4.999999999999993 69.59286999999999 L 4.999999999999993 69.59286999999999 C 4.999999999999993 69.81772 4.8177199999999925 69.99999999999999 4.5928699999999925 69.99999999999999 L -5.000000000000007 69.99999999999999 L -5.000000000000007 78.66822999999998 L -5.000000000000007 78.66822999999998 C -5.000000000000007 79.40374999999997 -5.596260000000007 79.99999999999999 -6.331770000000007 79.99999999999999 z" stroke-linecap="round" />
</g>
<g transform="matrix(0.9999999961 0 0 1 35.0000050155 150)" id="df1FkAdxQR5QP7nAZnnIr"  >
<path style="stroke: rgb(0,0,0); stroke-width: 1; stroke-dasharray: none; stroke-linecap: butt; stroke-dashoffset: 0; stroke-linejoin: miter; stroke-miterlimit: 4; fill: none; fill-rule: nonzero; opacity: 1;"  transform=" translate(0, 0)" d="M 0 0" stroke-linecap="round" />
</g>
<g transform="matrix(0.9999999961 0 0 1 65.0000048985 120)" id="s7I-yqGmuX6Rm23G-mt5O"  >
<path style="stroke: rgb(0,0,0); stroke-width: 2; stroke-dasharray: none; stroke-linecap: butt; stroke-dashoffset: 0; stroke-linejoin: miter; stroke-miterlimit: 4; fill: none; fill-rule: nonzero; opacity: 1;"  transform=" translate(0, 0)" d="M -30 30 L 20 30 L 20 70 L 28.79261 70 L 28.79261 70 C 29.45944 70 30 69.45943 30 68.79261 L 30 -68.46886 L 30 -68.46886 C 30 -69.31448 29.31449 -70 28.46886 -70 L 20 -70 L 20 -30 L -30 -30" stroke-linecap="round" />
</g>
<g transform="matrix(0.9999999961 0 0 1 120.000004684 120)" id="ENYbh42Y7900d3UB0JTxT"  >
<path style="stroke: rgb(0,0,0); stroke-width: 2; stroke-dasharray: none; stroke-linecap: butt; stroke-dashoffset: 0; stroke-linejoin: miter; stroke-miterlimit: 4; fill: none; fill-rule: nonzero; opacity: 1;"  transform=" translate(0, 0)" d="M -25 -10 L 25 -10 L 25 10 L -25 10 z" stroke-linecap="round" />
</g>
<g transform="matrix(0.9999999961 0 0 1 35.0000050155 190)" id="VDEt5bS-dRXpetvXCtT5U"  >
<path style="stroke: rgb(0,0,0); stroke-width: 1; stroke-dasharray: none; stroke-linecap: butt; stroke-dashoffset: 0; stroke-linejoin: miter; stroke-miterlimit: 4; fill: none; fill-rule: nonzero; opacity: 1;"  transform=" translate(0, 0)" d="M 0 0" stroke-linecap="round" />
</g>
<g transform="matrix(0.9999999961 0 0 1 60.000004918 120)" id="vVZT8A3OG87wvAJJnOw-W"  >
<path style="stroke: rgb(0,0,0); stroke-width: 2; stroke-dasharray: none; stroke-linecap: butt; stroke-dashoffset: 0; stroke-linejoin: miter; stroke-miterlimit: 4; fill: none; fill-rule: nonzero; opacity: 1;"  transform=" translate(0, 0)" d="M 25 -30 L 25 30 L 25 78.55265 L 25 78.55265 C 25 79.352 24.352 80 23.55265 80 L -23.088459999999998 80 L -23.088459999999998 80 C -24.14417 80 -24.999989999999997 79.14418 -24.999989999999997 78.08847 L -24.999989999999997 -78.34620000000001 L -24.999989999999997 -78.34620000000001 C -24.999989999999997 -78.78481000000001 -24.825749999999996 -79.20546000000002 -24.515599999999996 -79.51561000000001 C -24.205449999999995 -79.82576 -23.784799999999997 -80.00000000000001 -23.346189999999996 -80.00000000000001 L 24.321920000000002 -80.00000000000001 L 24.321920000000002 -80.00000000000001 C 24.50176 -80.00000000000001 24.67424 -79.92856000000002 24.80141 -79.80139000000001 C 24.92858 -79.67422 25.00002 -79.50175000000002 25.00002 -79.32190000000001 z" stroke-linecap="round" />
</g>
<g transform="matrix(0.9999999961 0 0 1 735.0000022855 120)" id="ziFIi35Jr-ttT3T_LP_YS"  >
<path style="stroke: rgb(0,0,0); stroke-width: 2; stroke-dasharray: none; stroke-linecap: butt; stroke-dashoffset: 0; stroke-linejoin: miter; stroke-miterlimit: 4; fill: rgb(60,223,83); fill-rule: nonzero; opacity: 1;"  transform=" translate(0, 0)" d="M 588.89856 -60 C 589.5068699999999 -60 590 -59.50687 590 -58.89856 L 590 58.583969999999994 L 590 58.583969999999994 C 590 59.36601999999999 589.36602 59.99999999999999 588.58397 59.99999999999999 L -589.9999999999999 59.99999999999999 L -589.9999999999999 -60.00000000000001 z" stroke-linecap="round" />
</g>
<g transform="matrix(0.9999999961 0 0 1 55.0000049375 120)" id="tZps-hWkaFFPD6-91u5qV"  >
<path style="stroke: rgb(0,0,0); stroke-width: 2; stroke-dasharray: none; stroke-linecap: butt; stroke-dashoffset: 0; stroke-linejoin: miter; stroke-miterlimit: 4; fill: rgb(255,255,255); fill-opacity: 0; fill-rule: nonzero; opacity: 1;"  transform=" translate(0, 0)" d="M -20 -20 L 0 -20 C 11.04569 -20 20 -11.04569 20 0 L 20 0 L 20 0 L 20 0 C 20 11.04569 11.04569 20 0 20 L -20 20" stroke-linecap="round" />
</g>
<g transform="matrix(0.9999999961 0 0 1 162.500002225 120)" id="RhbCZEXxBs_BF0JNJctoP"  >
<path style="stroke: rgb(0,0,0); stroke-width: 2; stroke-dasharray: none; stroke-linecap: butt; stroke-dashoffset: 0; stroke-linejoin: miter; stroke-miterlimit: 4; fill: rgb(160,160,160); fill-rule: nonzero; opacity: 1;"  transform=" translate(0, 0)" d="M -17.5 60 L -17.5 -60 L -7.5 -60 L -7.5 -6.745910000000002 L -7.5 -6.745910000000002 C -7.5 -5.781670000000002 -6.71833 -5.000000000000002 -5.75409 -5.000000000000002 L 12.500000000000002 -5.000000000000002 L 12.500000000000002 -5.000000000000002 C 15.261420000000001 -5.000000000000002 17.5 -2.761420000000002 17.5 -1.7763568394002505e-15 L 17.5 -1.7763568394002505e-15 L 17.5 0.6854299999999982 L 17.5 0.6854299999999982 C 17.5 3.068299999999998 15.5683 4.999999999999998 13.18543 4.999999999999998 L -6.34103 4.999999999999998 L -6.34103 4.999999999999998 C -6.98112 4.999999999999998 -7.50001 5.518889999999998 -7.50001 6.158979999999998 L -7.50001 60 z" stroke-linecap="round" />
</g>
<g transform="matrix(0.9999999961 0 0 0.9943484225 58.0000049258 120)" id="xFjmq0NkQFoySasLs2WDy"  >
<path style="stroke: rgb(0,0,0); stroke-width: 2; stroke-dasharray: none; stroke-linecap: butt; stroke-dashoffset: 0; stroke-linejoin: miter; stroke-miterlimit: 4; fill: rgb(0,255,11); fill-rule: nonzero; opacity: 1;"  transform=" translate(0, 0)" d="M 0 -10.05684 C -5.52285 -10.05684 -10 -5.554239999999999 -10 0 L -10 0 L -10 0 L -10 0 C -10 5.55424 -5.52285 10.05684 0 10.05684 L 0 10.05684 L 0 10.05684 L 0 10.05684 C 5.52285 10.05684 10 5.554239999999999 10 0 L 10 0 L 10 0 L 10 0 C 10 -5.55424 5.52285 -10.05684 0 -10.05684 z" stroke-linecap="round">
<animate
    attributeType="XML"
    attributeName="fill"
    values="rgb(0,255,11);#2E7F34;rgb(0,255,11);"
    dur="1s"
    repeatCount="indefinite"/>
</path>
</g>
<g transform="matrix(0.9999999961 0 0 1 1312.5000000332 120)" id="ALtKSPg2Nj6sOrgJcXPws"  >
<path style="stroke: rgb(0,0,0); stroke-width: 2; stroke-dasharray: none; stroke-linecap: butt; stroke-dashoffset: 0; stroke-linejoin: miter; stroke-miterlimit: 4; fill: rgb(160,160,160); fill-rule: nonzero; opacity: 1;"  transform=" translate(0, 0)" d="M 12.5 -5 L -7.5 -5 C -10.261420000000001 -5 -12.5 -2.76142 -12.5 0 L -12.5 0 L -12.5 0 L -12.5 0 C -12.5 2.76142 -10.261420000000001 5 -7.5 5 L 12.5 5" stroke-linecap="round" />
</g>
<g transform="matrix(0.9999999961 0 0 1 120.000004684 120)" id="mX4TVja69bHBSH7m6Fb-P"  >
<path style="stroke: rgb(0,0,0); stroke-width: 1; stroke-dasharray: none; stroke-linecap: butt; stroke-dashoffset: 0; stroke-linejoin: miter; stroke-miterlimit: 4; fill: none; fill-rule: nonzero; opacity: 1;"  transform=" translate(0, 0)" d="M -25 -5 L 25 -5 L 25 5 L -25 5" stroke-linecap="round" />
</g>
</svg>