<?xml version="1.0" encoding="UTF-8" standalone="no"?>
<!-- Created with Inkscape (http://www.inkscape.org/) -->

<svg
   width="27.112488mm"
   height="9.7198782mm"
   viewBox="0 0 27.112488 9.7198782"
   version="1.1"
   id="svg1"
   xmlns:inkscape="http://www.inkscape.org/namespaces/inkscape"
   xmlns:sodipodi="http://sodipodi.sourceforge.net/DTD/sodipodi-0.dtd"
   xmlns="http://www.w3.org/2000/svg"
   xmlns:svg="http://www.w3.org/2000/svg">
  <sodipodi:namedview
     id="namedview1"
     pagecolor="#505050"
     bordercolor="#eeeeee"
     borderopacity="1"
     inkscape:showpageshadow="0"
     inkscape:pageopacity="0"
     inkscape:pagecheckerboard="0"
     inkscape:deskcolor="#505050"
     inkscape:document-units="mm"
     inkscape:export-bgcolor="#ffffff00" />
  <defs
     id="defs1">
    <clipPath
       clipPathUnits="userSpaceOnUse"
       id="clipPath22">
      <path
         d="m 14.563,549.014 h 76.855 v 27.553 H 14.563 Z"
         transform="translate(-69.150401,-550.38221)"
         id="path22" />
    </clipPath>
    <clipPath
       clipPathUnits="userSpaceOnUse"
       id="clipPath24">
      <path
         d="m 14.563,549.014 h 76.855 v 27.553 H 14.563 Z"
         transform="translate(-68.383102,-552.02371)"
         id="path24" />
    </clipPath>
    <clipPath
       clipPathUnits="userSpaceOnUse"
       id="clipPath26">
      <path
         d="m 14.563,549.014 h 76.855 v 27.553 H 14.563 Z"
         transform="translate(-70.104902,-552.04261)"
         id="path26" />
    </clipPath>
    <clipPath
       clipPathUnits="userSpaceOnUse"
       id="clipPath28">
      <path
         d="m 14.563,549.014 h 76.855 v 27.553 H 14.563 Z"
         transform="translate(-74.277202,-552.96231)"
         id="path28" />
    </clipPath>
    <clipPath
       clipPathUnits="userSpaceOnUse"
       id="clipPath30">
      <path
         d="m 14.563,549.014 h 76.855 v 27.553 H 14.563 Z"
         transform="translate(-75.131904,-552.04261)"
         id="path30" />
    </clipPath>
    <clipPath
       clipPathUnits="userSpaceOnUse"
       id="clipPath32">
      <path
         d="m 14.563,549.014 h 76.855 v 27.553 H 14.563 Z"
         transform="translate(-79.432502,-550.89481)"
         id="path32" />
    </clipPath>
    <clipPath
       clipPathUnits="userSpaceOnUse"
       id="clipPath34">
      <path
         d="m 14.563,549.014 h 76.855 v 27.553 H 14.563 Z"
         transform="translate(-82.7152,-553.29221)"
         id="path34" />
    </clipPath>
    <clipPath
       clipPathUnits="userSpaceOnUse"
       id="clipPath36">
      <path
         d="m 14.563,549.014 h 76.855 v 27.553 H 14.563 Z"
         transform="translate(-83.163002,-553.34541)"
         id="path36" />
    </clipPath>
    <clipPath
       clipPathUnits="userSpaceOnUse"
       id="clipPath38">
      <path
         d="m 14.563,549.014 h 76.855 v 27.553 H 14.563 Z"
         id="path38" />
    </clipPath>
    <clipPath
       clipPathUnits="userSpaceOnUse"
       id="clipPath40">
      <path
         d="m 14.563,549.014 h 76.855 v 27.553 H 14.563 Z"
         transform="translate(-80.541302,-574.50041)"
         id="path40" />
    </clipPath>
    <clipPath
       clipPathUnits="userSpaceOnUse"
       id="clipPath42">
      <path
         d="m 14.563,549.014 h 76.855 v 27.553 H 14.563 Z"
         transform="translate(-80.540402,-570.54821)"
         id="path42" />
    </clipPath>
    <clipPath
       clipPathUnits="userSpaceOnUse"
       id="clipPath44">
      <path
         d="m 14.563,549.014 h 76.855 v 27.553 H 14.563 Z"
         transform="translate(-81.052,-561.35141)"
         id="path44" />
    </clipPath>
    <clipPath
       clipPathUnits="userSpaceOnUse"
       id="clipPath46">
      <path
         d="m 14.563,549.014 h 76.855 v 27.553 H 14.563 Z"
         id="path46" />
    </clipPath>
    <clipPath
       clipPathUnits="userSpaceOnUse"
       id="clipPath48">
      <path
         d="m 14.563,549.014 h 76.855 v 27.553 H 14.563 Z"
         id="path48" />
    </clipPath>
    <clipPath
       clipPathUnits="userSpaceOnUse"
       id="clipPath50">
      <path
         d="m 14.563,549.014 h 76.855 v 27.553 H 14.563 Z"
         transform="translate(-43.296001,-559.48731)"
         id="path50" />
    </clipPath>
    <clipPath
       clipPathUnits="userSpaceOnUse"
       id="clipPath52">
      <path
         d="m 14.563,549.014 h 76.855 v 27.553 H 14.563 Z"
         transform="translate(-57.430301,-559.57851)"
         id="path52" />
    </clipPath>
    <clipPath
       clipPathUnits="userSpaceOnUse"
       id="clipPath54">
      <path
         d="m 14.563,549.014 h 76.855 v 27.553 H 14.563 Z"
         transform="translate(-27.4531,-568.76151)"
         id="path54" />
    </clipPath>
    <clipPath
       clipPathUnits="userSpaceOnUse"
       id="clipPath56">
      <path
         d="m 14.563,549.014 h 76.855 v 27.553 H 14.563 Z"
         id="path56" />
    </clipPath>
  </defs>
  <g
     inkscape:label="Layer 1"
     inkscape:groupmode="layer"
     id="layer1"
     transform="translate(-93.6625,-117.73958)">
    <g
       id="group-MC0"
       transform="matrix(0.26458333,0,0,0.26458333,88.524997,111.13925)">
      <path
         id="path21"
         d="m 0,0 c -0.041,0.113 -0.107,0.201 -0.195,0.266 -0.09,0.063 -0.208,0.107 -0.352,0.133 -0.145,0.024 -0.322,0.037 -0.532,0.037 H -1.234 V 0.049 c 0.045,-0.002 0.085,-0.002 0.121,-0.002 0.134,0 0.247,-0.005 0.339,-0.016 0.093,-0.009 0.167,-0.031 0.224,-0.064 0.058,-0.033 0.097,-0.083 0.124,-0.149 0.025,-0.066 0.038,-0.156 0.038,-0.266 0,-0.194 -0.068,-0.334 -0.206,-0.422 -0.137,-0.084 -0.351,-0.127 -0.64,-0.127 v -0.371 c 0.272,0 0.503,0.031 0.693,0.096 0.195,0.063 0.344,0.165 0.447,0.302 0.102,0.138 0.152,0.317 0.154,0.539 C 0.06,-0.256 0.039,-0.113 0,0"
         style="fill:#3aaa35 icc-color(sRGB-IEC61966-2, 0.1, 0.22898865, 0.66598511, 0.20799255);fill-opacity:1;fill-rule:nonzero;stroke:none"
         transform="matrix(1.3333333,0,0,-1.3333333,92.200533,59.8584)"
         clip-path="url(#clipPath22)" />
      <path
         id="path23"
         d="m 0,0 c -0.044,-0.094 -0.116,-0.164 -0.215,-0.206 -0.068,-0.03 -0.153,-0.049 -0.252,-0.058 -0.046,-0.003 -0.093,-0.006 -0.145,-0.005 -0.152,-0.001 -0.276,0.021 -0.374,0.063 -0.097,0.042 -0.17,0.112 -0.217,0.206 -0.045,0.094 -0.068,0.219 -0.068,0.373 0,0.154 0.023,0.28 0.068,0.376 0.047,0.094 0.12,0.165 0.217,0.207 0.098,0.044 0.222,0.066 0.374,0.065 0.052,0.001 0.099,-0.002 0.145,-0.005 0.099,-0.01 0.184,-0.029 0.252,-0.06 C -0.116,0.914 -0.044,0.843 0,0.749 0.046,0.653 0.068,0.527 0.066,0.373 0.068,0.219 0.046,0.094 0,0 M 0.874,1.327 0.002,1.304 C 0,1.304 -0.017,1.308 -0.052,1.316 -0.088,1.324 -0.135,1.332 -0.193,1.343 -0.253,1.352 -0.319,1.36 -0.391,1.368 -0.417,1.371 -0.442,1.374 -0.467,1.376 -0.514,1.379 -0.563,1.381 -0.612,1.381 -0.832,1.382 -1.022,1.348 -1.187,1.28 -1.352,1.212 -1.48,1.104 -1.572,0.956 -1.665,0.808 -1.711,0.613 -1.712,0.373 c 0,-0.18 0.023,-0.329 0.064,-0.447 0.043,-0.118 0.101,-0.212 0.17,-0.283 0.071,-0.071 0.146,-0.124 0.231,-0.16 -10e-4,-0.002 -0.013,-0.021 -0.031,-0.057 -0.021,-0.036 -0.043,-0.08 -0.069,-0.134 -0.027,-0.053 -0.049,-0.103 -0.07,-0.155 -0.019,-0.049 -0.03,-0.09 -0.031,-0.12 0,-0.093 0.016,-0.173 0.044,-0.245 0.027,-0.071 0.067,-0.124 0.121,-0.16 -0.102,-0.076 -0.187,-0.148 -0.258,-0.217 -0.067,-0.068 -0.119,-0.144 -0.154,-0.224 -0.036,-0.081 -0.054,-0.179 -0.054,-0.29 -10e-4,-0.17 0.023,-0.313 0.068,-0.428 0.044,-0.115 0.118,-0.206 0.217,-0.274 0.099,-0.067 0.23,-0.116 0.392,-0.144 0.162,-0.03 0.358,-0.045 0.591,-0.045 h 0.014 v 0.372 h -0.008 c -0.167,0 -0.303,0.009 -0.412,0.029 -0.11,0.019 -0.195,0.051 -0.256,0.096 -0.063,0.043 -0.107,0.099 -0.132,0.17 -0.025,0.071 -0.038,0.158 -0.038,0.258 0,0.077 0.011,0.142 0.032,0.197 0.02,0.055 0.055,0.108 0.103,0.157 0.049,0.05 0.113,0.105 0.195,0.165 0.002,0 0.018,0 0.047,-0.003 0.03,-0.002 0.07,-0.005 0.118,-0.008 0.049,-0.002 0.103,-0.005 0.159,-0.008 0.057,-0.003 0.113,-0.005 0.168,-0.008 h 0.024 v 0.387 c -0.093,0.002 -0.171,0.005 -0.236,0.008 -0.097,0.008 -0.168,0.02 -0.214,0.039 -0.045,0.019 -0.075,0.046 -0.089,0.082 -0.013,0.036 -0.019,0.083 -0.018,0.142 0.002,0.02 0.007,0.048 0.018,0.084 0.009,0.036 0.022,0.074 0.036,0.112 0.012,0.038 0.025,0.071 0.036,0.099 0.011,0.025 0.016,0.039 0.016,0.041 0.023,-0.005 0.053,-0.008 0.091,-0.011 0.038,-0.005 0.074,-0.006 0.112,-0.009 0.036,-0.004 0.066,-0.004 0.086,-0.004 0.057,0 0.11,0 0.162,0.004 0.123,0.006 0.234,0.021 0.335,0.043 0.142,0.034 0.26,0.087 0.355,0.164 0.095,0.076 0.167,0.178 0.214,0.307 C 0.484,0.022 0.508,0.182 0.508,0.373 0.508,0.476 0.5,0.566 0.483,0.64 0.465,0.714 0.443,0.778 0.414,0.83 0.385,0.882 0.351,0.926 0.314,0.962 L 0.874,0.95 Z"
         style="fill:#3aaa35 icc-color(sRGB-IEC61966-2, 0.1, 0.22898865, 0.66598511, 0.20799255);fill-opacity:1;fill-rule:nonzero;stroke:none"
         transform="matrix(1.3333333,0,0,-1.3333333,91.177467,57.669733)"
         clip-path="url(#clipPath24)" />
      <path
         id="path25"
         d="M 0,0 C 0.003,0.237 0.035,0.429 0.097,0.574 0.159,0.719 0.247,0.826 0.363,0.892 0.475,0.956 0.61,0.987 0.766,0.991 H 0.789 C 0.962,0.991 1.104,0.959 1.214,0.896 1.322,0.832 1.404,0.726 1.454,0.582 1.506,0.437 1.533,0.244 1.533,0 Z M 1.975,-0.017 C 1.975,0.304 1.931,0.566 1.841,0.769 1.753,0.973 1.621,1.123 1.445,1.219 1.27,1.315 1.052,1.363 0.789,1.362 H 0.766 C 0.525,1.36 0.316,1.31 0.138,1.209 -0.046,1.105 -0.189,0.939 -0.288,0.711 -0.39,0.484 -0.44,0.182 -0.442,-0.189 c 0,-0.25 0.019,-0.47 0.06,-0.659 0.039,-0.188 0.105,-0.345 0.195,-0.473 0.089,-0.127 0.211,-0.223 0.36,-0.286 0.149,-0.063 0.333,-0.096 0.552,-0.096 h 0.041 c 0.085,0.002 0.171,0.005 0.262,0.011 0.106,0.005 0.208,0.013 0.309,0.024 0.099,0.008 0.19,0.017 0.27,0.027 0.082,0.009 0.146,0.017 0.193,0.023 0.049,0.006 0.073,0.01 0.074,0.01 l -0.012,0.347 c 0,0 -0.024,-0.002 -0.069,-0.005 C 1.747,-1.269 1.684,-1.274 1.609,-1.278 1.532,-1.285 1.445,-1.289 1.351,-1.296 1.256,-1.3 1.159,-1.305 1.061,-1.308 0.962,-1.311 0.868,-1.313 0.778,-1.313 H 0.766 C 0.58,-1.311 0.432,-1.275 0.322,-1.204 0.209,-1.132 0.128,-1.025 0.079,-0.882 0.028,-0.741 0.005,-0.563 0.006,-0.354 h 1.945 z"
         style="fill:#3aaa35 icc-color(sRGB-IEC61966-2, 0.1, 0.22898865, 0.66598511, 0.20799255);fill-opacity:1;fill-rule:nonzero;stroke:none"
         transform="matrix(1.3333333,0,0,-1.3333333,93.4732,57.644533)"
         clip-path="url(#clipPath26)" />
      <path
         id="path27"
         d="M 0,0 V 0.383 H -0.937 V 1.285 H -1.373 V 0.383 H -1.791 V 0 h 0.418 v -1.55 c 0,-0.211 0.014,-0.387 0.042,-0.526 0.028,-0.14 0.074,-0.251 0.137,-0.331 0.064,-0.081 0.147,-0.138 0.251,-0.172 0.104,-0.033 0.232,-0.05 0.383,-0.049 0.053,0 0.113,0.004 0.181,0.01 0.068,0.007 0.134,0.014 0.197,0.022 0.064,0.009 0.116,0.016 0.159,0.023 0.041,0.006 0.062,0.01 0.064,0.01 l -0.029,0.365 c -0.001,0 -0.021,-0.002 -0.059,-0.006 -0.037,-0.003 -0.085,-0.007 -0.141,-0.012 -0.057,-0.004 -0.114,-0.008 -0.173,-0.011 -0.058,-0.004 -0.109,-0.006 -0.152,-0.006 -0.095,-10e-4 -0.171,0.012 -0.227,0.038 -0.057,0.027 -0.1,0.071 -0.128,0.134 -0.029,0.061 -0.047,0.146 -0.056,0.253 -0.01,0.107 -0.014,0.24 -0.013,0.4 V 0 Z"
         style="fill:#3aaa35 icc-color(sRGB-IEC61966-2, 0.1, 0.22898865, 0.66598511, 0.20799255);fill-opacity:1;fill-rule:nonzero;stroke:none"
         transform="matrix(1.3333333,0,0,-1.3333333,99.036267,56.418267)"
         clip-path="url(#clipPath28)" />
      <path
         id="path29"
         d="M 0,0 C 0.002,0.237 0.035,0.429 0.096,0.574 0.157,0.719 0.247,0.826 0.363,0.892 0.475,0.956 0.609,0.987 0.766,0.991 H 0.79 C 0.962,0.991 1.102,0.959 1.212,0.896 1.321,0.832 1.403,0.726 1.454,0.582 1.506,0.437 1.533,0.244 1.532,0 Z M 1.974,-0.017 C 1.974,0.304 1.929,0.566 1.841,0.769 1.753,0.973 1.62,1.123 1.445,1.219 1.269,1.315 1.051,1.363 0.79,1.362 H 0.766 C 0.525,1.36 0.314,1.31 0.137,1.209 -0.047,1.105 -0.189,0.939 -0.289,0.711 -0.39,0.484 -0.442,0.182 -0.442,-0.189 c -0.001,-0.25 0.019,-0.47 0.058,-0.659 0.041,-0.188 0.106,-0.345 0.197,-0.473 0.089,-0.127 0.209,-0.223 0.359,-0.286 0.15,-0.063 0.333,-0.096 0.553,-0.096 h 0.041 c 0.083,0.002 0.171,0.005 0.261,0.011 0.107,0.005 0.209,0.013 0.308,0.024 0.101,0.008 0.19,0.017 0.272,0.027 0.082,0.009 0.145,0.017 0.193,0.023 0.048,0.006 0.073,0.01 0.073,0.01 L 1.862,-1.261 C 1.86,-1.261 1.837,-1.263 1.791,-1.266 1.746,-1.269 1.684,-1.274 1.607,-1.278 1.532,-1.285 1.445,-1.289 1.351,-1.296 1.256,-1.3 1.159,-1.305 1.06,-1.308 0.961,-1.311 0.867,-1.313 0.777,-1.313 H 0.766 C 0.58,-1.311 0.431,-1.275 0.321,-1.204 0.208,-1.132 0.126,-1.025 0.077,-0.882 0.028,-0.741 0.005,-0.563 0.006,-0.354 H 1.95 Z"
         style="fill:#9d9d9c icc-color(sRGB-IEC61966-2, 0.1, 0.61599731, 0.61499023, 0.61299133);fill-opacity:1;fill-rule:nonzero;stroke:none"
         transform="matrix(1.3333333,0,0,-1.3333333,100.17587,57.644533)"
         clip-path="url(#clipPath30)" />
      <path
         id="path31"
         d="m 0,0 c 0,-0.002 -0.028,-0.011 -0.083,-0.03 -0.054,-0.017 -0.126,-0.039 -0.214,-0.061 -0.092,-0.025 -0.191,-0.046 -0.299,-0.065 -0.03,-0.004 -0.06,-0.008 -0.09,-0.012 -0.08,-0.01 -0.158,-0.014 -0.239,-0.016 -0.149,0.002 -0.262,0.05 -0.336,0.143 -0.074,0.094 -0.112,0.228 -0.112,0.4 -0.001,0.162 0.038,0.286 0.117,0.372 0.078,0.088 0.207,0.14 0.385,0.157 L -0.686,0.907 0,0.972 Z m 0.615,-0.168 c -0.051,0.02 -0.09,0.047 -0.12,0.083 -0.031,0.035 -0.047,0.08 -0.053,0.137 V 1.561 C 0.443,1.775 0.41,1.951 0.344,2.091 0.278,2.233 0.176,2.338 0.036,2.406 -0.104,2.475 -0.285,2.51 -0.506,2.51 -0.564,2.51 -0.626,2.508 -0.686,2.505 -0.73,2.503 -0.775,2.5 -0.821,2.495 -0.928,2.488 -1.032,2.477 -1.132,2.464 -1.231,2.451 -1.321,2.439 -1.401,2.426 -1.48,2.412 -1.543,2.403 -1.59,2.393 -1.637,2.385 -1.661,2.379 -1.661,2.379 l 0.018,-0.335 c 0,0 0.027,0.003 0.077,0.008 0.049,0.005 0.115,0.011 0.196,0.019 0.082,0.008 0.172,0.016 0.269,0.023 l 0.297,0.019 c 0.041,0.002 0.081,0.003 0.118,0.005 0.055,0.002 0.107,0.003 0.156,0.003 0.118,0 0.217,-0.017 0.296,-0.053 C -0.156,2.032 -0.098,1.972 -0.058,1.89 -0.019,1.807 0,1.697 0,1.561 V 1.307 L -0.686,1.242 -0.925,1.219 C -1.127,1.2 -1.294,1.159 -1.428,1.093 -1.562,1.027 -1.661,0.934 -1.727,0.811 -1.793,0.69 -1.826,0.535 -1.826,0.348 c 0,-0.299 0.073,-0.524 0.214,-0.675 0.142,-0.151 0.348,-0.228 0.617,-0.228 0.105,0.002 0.209,0.009 0.309,0.024 0.027,0.004 0.054,0.009 0.08,0.014 0.126,0.022 0.24,0.05 0.34,0.08 0.101,0.031 0.181,0.058 0.241,0.08 0.06,0.024 0.089,0.038 0.091,0.038 0.087,-0.087 0.186,-0.148 0.299,-0.184 0.113,-0.036 0.247,-0.052 0.402,-0.052 l 0.018,0.347 c -0.065,0.008 -0.12,0.022 -0.17,0.04"
         style="fill:#9d9d9c icc-color(sRGB-IEC61966-2, 0.1, 0.61599731, 0.61499023, 0.61299133);fill-opacity:1;fill-rule:nonzero;stroke:none"
         transform="matrix(1.3333333,0,0,-1.3333333,105.91,59.174933)"
         clip-path="url(#clipPath32)" />
      <path
         id="path33"
         d="M 0,0 C -0.001,0 -0.024,0.004 -0.069,0.012 -0.113,0.02 -0.173,0.029 -0.248,0.039 -0.323,0.05 -0.408,0.062 -0.5,0.073 -0.593,0.083 -0.688,0.093 -0.786,0.1 -0.884,0.108 -0.977,0.112 -1.067,0.112 -1.202,0.113 -1.333,0.098 -1.458,0.069 c -0.126,-0.03 -0.239,-0.078 -0.34,-0.144 -0.1,-0.066 -0.18,-0.155 -0.239,-0.266 -0.059,-0.11 -0.089,-0.245 -0.09,-0.407 0,-0.147 0.02,-0.266 0.06,-0.362 0.04,-0.095 0.101,-0.171 0.182,-0.229 0.082,-0.057 0.184,-0.104 0.307,-0.138 0.124,-0.035 0.269,-0.065 0.435,-0.09 0.16,-0.025 0.292,-0.049 0.396,-0.075 0.103,-0.025 0.184,-0.055 0.242,-0.089 0.059,-0.035 0.1,-0.078 0.124,-0.129 0.023,-0.051 0.034,-0.115 0.033,-0.191 0,-0.132 -0.028,-0.235 -0.085,-0.309 -0.056,-0.074 -0.14,-0.126 -0.25,-0.155 -0.109,-0.03 -0.246,-0.043 -0.407,-0.042 -0.062,0 -0.134,0.004 -0.216,0.011 -0.084,0.005 -0.169,0.014 -0.256,0.024 -0.088,0.01 -0.17,0.02 -0.245,0.029 -0.075,0.01 -0.136,0.019 -0.183,0.025 -0.047,0.007 -0.071,0.011 -0.072,0.011 L -2.086,-2.84 c 10e-4,0 0.026,-0.004 0.072,-0.012 0.046,-0.007 0.108,-0.017 0.184,-0.027 0.077,-0.011 0.162,-0.023 0.253,-0.034 0.092,-0.011 0.184,-0.019 0.276,-0.027 0.091,-0.008 0.176,-0.012 0.252,-0.012 0.237,-10e-4 0.44,0.027 0.611,0.086 0.17,0.057 0.302,0.154 0.393,0.288 0.092,0.136 0.138,0.316 0.139,0.545 0,0.142 -0.017,0.26 -0.055,0.356 -0.036,0.095 -0.095,0.173 -0.175,0.233 -0.08,0.061 -0.185,0.111 -0.314,0.151 -0.129,0.039 -0.286,0.073 -0.469,0.103 -0.155,0.025 -0.283,0.052 -0.383,0.077 -0.1,0.026 -0.179,0.055 -0.235,0.089 -0.055,0.032 -0.094,0.072 -0.117,0.12 -0.021,0.047 -0.032,0.105 -0.031,0.173 0.001,0.115 0.029,0.206 0.085,0.271 0.056,0.065 0.132,0.111 0.228,0.139 0.096,0.026 0.206,0.039 0.329,0.038 0.077,0 0.161,-0.003 0.253,-0.01 0.091,-0.005 0.182,-0.013 0.273,-0.023 0.091,-0.009 0.175,-0.019 0.251,-0.028 0.077,-0.009 0.137,-0.016 0.184,-0.023 0.046,-0.006 0.069,-0.01 0.07,-0.01 z"
         style="fill:#9d9d9c icc-color(sRGB-IEC61966-2, 0.1, 0.61599731, 0.61499023, 0.61299133);fill-opacity:1;fill-rule:nonzero;stroke:none"
         transform="matrix(1.3333333,0,0,-1.3333333,110.28693,55.9784)"
         clip-path="url(#clipPath34)" />
      <path
         id="path35"
         d="M 0,0 0.837,-2.946 H 1.273 L 0.89,-4.254 H 1.332 L 2.557,0 H 2.115 L 1.373,-2.563 H 1.179 L 0.442,0 Z"
         style="fill:#9d9d9c icc-color(sRGB-IEC61966-2, 0.1, 0.61599731, 0.61499023, 0.61299133);fill-opacity:1;fill-rule:nonzero;stroke:none"
         transform="matrix(1.3333333,0,0,-1.3333333,110.884,55.907467)"
         clip-path="url(#clipPath36)" />
      <path
         id="path37"
         d="m 86.863,549.505 h 4.539 v 0.475 h -4.539 z"
         style="fill:#9d9d9c icc-color(sRGB-IEC61966-2, 0.1, 0.61599731, 0.61499023, 0.61299133);fill-opacity:1;fill-rule:evenodd;stroke:none"
         transform="matrix(1.3333333,0,0,-1.3333333,0,793.70133)"
         clip-path="url(#clipPath38)" />
      <path
         id="path39"
         d="m 0,0 c 4.865,0 8.808,-3.942 8.808,-8.807 0,-0.053 0,-0.106 -0.003,-0.158 h 2.069 c 10e-4,0.052 0.002,0.105 0.002,0.155 C 10.876,-2.801 6.008,2.066 0,2.066 h -0.043 v -2.067 z"
         style="fill:#3aaa35 icc-color(sRGB-IEC61966-2, 0.1, 0.22898865, 0.66598511, 0.20799255);fill-opacity:1;fill-rule:evenodd;stroke:none"
         transform="matrix(1.3333333,0,0,-1.3333333,107.3884,27.7008)"
         clip-path="url(#clipPath40)" />
      <path
         id="path41"
         d="m 0,0 c 2.683,0 4.856,-2.174 4.856,-4.855 0,-0.053 -10e-4,-0.106 -0.004,-0.157 h 2.064 c 0.002,0.051 0.003,0.104 0.003,0.157 0,3.821 -3.097,6.918 -6.918,6.918 L -0.042,2.061 v -2.064 z"
         style="fill:#3aaa35 icc-color(sRGB-IEC61966-2, 0.1, 0.22898865, 0.66598511, 0.20799255);fill-opacity:1;fill-rule:evenodd;stroke:none"
         transform="matrix(1.3333333,0,0,-1.3333333,107.3872,32.9704)"
         clip-path="url(#clipPath42)" />
      <path
         id="path43"
         d="m 0,0 -0.546,0.476 -1.353,-1.6 1.68,-1.47 c -0.29,-0.458 -0.846,-0.768 -1.478,-0.768 h -3.726 c -0.931,0 -1.665,0.675 -1.665,1.497 V 3.87 c 0,0.795 0.734,1.469 1.665,1.469 h 3.726 C -0.764,5.339 0,4.665 0,3.87 Z m 2.434,-2.129 c 0.014,0.12 0.021,0.241 0.021,0.363 v 5.535 c 0,1.994 -1.864,3.639 -4.152,3.639 h -3.726 c -2.287,0 -4.122,-1.645 -4.122,-3.639 v -5.535 c 0,-2.017 1.835,-3.638 4.122,-3.638 h 3.726 c 1.282,0 2.431,0.509 3.192,1.311 l 1.502,-1.311 1.354,1.599 z"
         style="fill:#3aaa35 icc-color(sRGB-IEC61966-2, 0.1, 0.22898865, 0.66598511, 0.20799255);fill-opacity:1;fill-rule:evenodd;stroke:none"
         transform="matrix(1.3333333,0,0,-1.3333333,108.06933,45.2328)"
         clip-path="url(#clipPath44)" />
      <path
         id="path45"
         d="m 69.316,555.948 h -2.498 v 12.824 h 2.498 z"
         style="fill:#3aaa35 icc-color(sRGB-IEC61966-2, 0.1, 0.22898865, 0.66598511, 0.20799255);fill-opacity:1;fill-rule:nonzero;stroke:none"
         transform="matrix(1.3333333,0,0,-1.3333333,0,793.70133)"
         clip-path="url(#clipPath46)" />
      <path
         id="path47"
         d="m 66.819,570.626 h 2.494 v 2.494 h -2.494 z"
         style="fill:#3aaa35 icc-color(sRGB-IEC61966-2, 0.1, 0.22898865, 0.66598511, 0.20799255);fill-opacity:1;fill-rule:evenodd;stroke:none"
         transform="matrix(1.3333333,0,0,-1.3333333,0,793.70133)"
         clip-path="url(#clipPath48)" />
      <path
         id="path49"
         d="m 0,0 c 0,-0.822 -0.763,-1.497 -1.695,-1.497 h -3.727 c -0.932,0 -1.665,0.675 -1.665,1.497 v 5.735 c 0,0.795 0.733,1.468 1.665,1.468 h 3.727 C -0.763,7.203 0,6.53 0,5.735 Z m -1.695,9.272 h -3.727 c -2.286,0 -4.122,-1.644 -4.122,-3.638 V 0.099 c 0,-2.018 1.836,-3.639 4.122,-3.639 h 3.727 c 2.288,0 4.15,1.621 4.15,3.639 v 5.535 c 0,1.994 -1.862,3.638 -4.15,3.638"
         style="fill:#9d9d9c icc-color(sRGB-IEC61966-2, 0.1, 0.61599731, 0.61499023, 0.61299133);fill-opacity:1;fill-rule:nonzero;stroke:none"
         transform="matrix(1.3333333,0,0,-1.3333333,57.728,47.718267)"
         clip-path="url(#clipPath50)" />
      <path
         id="path51"
         d="m 0,0 c 0,-0.423 -0.187,-0.802 -0.494,-1.074 -0.305,-0.272 -0.731,-0.439 -1.207,-0.439 h -5.277 v 8.529 h 5.277 C -0.748,7.016 0,6.353 0,5.508 Z m -1.701,9.134 h -5.277 v 4.404 H -9.489 V -3.631 h 7.788 c 2.308,0 4.211,1.659 4.211,3.73 v 5.312 c 0,2.064 -1.903,3.723 -4.211,3.723"
         style="fill:#9d9d9c icc-color(sRGB-IEC61966-2, 0.1, 0.61599731, 0.61499023, 0.61299133);fill-opacity:1;fill-rule:nonzero;stroke:none"
         transform="matrix(1.3333333,0,0,-1.3333333,76.573733,47.596667)"
         clip-path="url(#clipPath52)" />
      <path
         id="path53"
         d="m 0,0 h -12.891 v -12.813 h 2.451 v 9.403 1.076 0.232 h 0.28 2.1 0.687 1.461 0.312 v -0.281 -1.335 -9.095 h 2.448 V -2.102 H 0 c 0.931,0 1.66,-0.692 1.66,-1.512 v -9.199 h 2.449 v 9.071 C 4.109,-1.666 2.282,0 0,0"
         style="fill:#9d9d9c icc-color(sRGB-IEC61966-2, 0.1, 0.61599731, 0.61499023, 0.61299133);fill-opacity:1;fill-rule:nonzero;stroke:none"
         transform="matrix(1.3333333,0,0,-1.3333333,36.604133,35.352667)"
         clip-path="url(#clipPath54)" />
      <path
         id="path55"
         d="m 62.131,555.948 h 2.494 v 2.493 h -2.494 z"
         style="fill:#9d9d9c icc-color(sRGB-IEC61966-2, 0.1, 0.61599731, 0.61499023, 0.61299133);fill-opacity:1;fill-rule:evenodd;stroke:none"
         transform="matrix(1.3333333,0,0,-1.3333333,0,793.70133)"
         clip-path="url(#clipPath56)" />
    </g>
  </g>
</svg>
